<svg xmlns="http://www.w3.org/2000/svg" width="170.021" height="63.2" viewBox="0 0 170.021 63.2"><defs><style>.a{fill:#fff;}.b{fill:#133a7c;}</style></defs><g transform="translate(0.031 0.08)"><path class="a" d="M73.16.92l.12,4.59h-.43a4.65,4.65,0,0,0-1.48-2.78,3.79,3.79,0,0,0-2.56-1,2.43,2.43,0,0,0-1.68.55,1.69,1.69,0,0,0-.62,1.28,1.58,1.58,0,0,0,.22.81,3.49,3.49,0,0,0,1,.94A19.451,19.451,0,0,0,70,6.45,10.16,10.16,0,0,1,73.3,8.7a3.74,3.74,0,0,1,.85,2.42,3.84,3.84,0,0,1-1.38,3,5.06,5.06,0,0,1-3.5,1.24A6.22,6.22,0,0,1,68,15.21a10.42,10.42,0,0,1-1.5-.5,2.15,2.15,0,0,0-.82-.2,1,1,0,0,0-.57.2,1.42,1.42,0,0,0-.49.62h-.38V10.12h.38a5.9,5.9,0,0,0,1.76,3.35,4.16,4.16,0,0,0,2.82,1.16A2.7,2.7,0,0,0,71.08,14a1.85,1.85,0,0,0,.43-2.39,3,3,0,0,0-.81-.87,12.51,12.51,0,0,0-1.92-1.07A17.14,17.14,0,0,1,66,8.11a4.82,4.82,0,0,1-1.3-1.47,3.49,3.49,0,0,1-.45-1.76A3.73,3.73,0,0,1,65.5,2.07,4.41,4.41,0,0,1,68.63.92,5.32,5.32,0,0,1,70,1.08a6.85,6.85,0,0,1,1.19.45,2.87,2.87,0,0,0,1,.33.52.52,0,0,0,.42-.17A1.67,1.67,0,0,0,72.9.92Z"/><path class="a" d="M80.81,2V7.64h.28a2.25,2.25,0,0,0,2-.83,4.87,4.87,0,0,0,.77-2.43h.4V11.6h-.4a5.15,5.15,0,0,0-.52-1.93,2.26,2.26,0,0,0-.93-1,3.53,3.53,0,0,0-1.55-.27v3.89a5.73,5.73,0,0,0,.1,1.39.88.88,0,0,0,.37.42,1.91,1.91,0,0,0,.88.16H83a5.18,5.18,0,0,0,3.17-.89,4.93,4.93,0,0,0,1.71-2.73h.39L87.63,15H75.43v-.38h.47a2,2,0,0,0,1-.22.92.92,0,0,0,.42-.48,4.36,4.36,0,0,0,.11-1.28V3.59a6.5,6.5,0,0,0,0-1.15A1,1,0,0,0,77,1.89a1.85,1.85,0,0,0-1.1-.29h-.47V1.23H87.25V5.31h-.4A4.81,4.81,0,0,0,86,3.16a3.1,3.1,0,0,0-1.54-1A8.11,8.11,0,0,0,82.28,2Z"/><path class="a" d="M103.93.92V5.77h-.38a6.26,6.26,0,0,0-2.09-3,5.07,5.07,0,0,0-3-1,4,4,0,0,0-2.64.87A4.69,4.69,0,0,0,94.28,5a11.82,11.82,0,0,0-.43,3.2,11.75,11.75,0,0,0,.47,3.47,4.06,4.06,0,0,0,1.55,2.2,4.52,4.52,0,0,0,2.54.69,5.31,5.31,0,0,0,1-.1,6.74,6.74,0,0,0,1.1-.31V11.28a3.19,3.19,0,0,0-.11-1,1.08,1.08,0,0,0-.4-.48,1.8,1.8,0,0,0-.87-.19h-.36V9.23h6.86v.38a2.91,2.91,0,0,0-1.09.21,1,1,0,0,0-.47.51,2.64,2.64,0,0,0-.1.95v2.87a14.15,14.15,0,0,1-2.81.89,15,15,0,0,1-3,.3,8.68,8.68,0,0,1-3.34-.54,8.18,8.18,0,0,1-2.34-1.4,6.63,6.63,0,0,1-1.59-2,6.71,6.71,0,0,1-.73-3.15A7,7,0,0,1,92.4,3,7.81,7.81,0,0,1,98,.9a8.26,8.26,0,0,1,3.38.63,5.64,5.64,0,0,0,1.21.38.84.84,0,0,0,.54-.21,1.77,1.77,0,0,0,.46-.78Z"/><path class="a" d="M106.31,1.23h7.28V1.6h-.36a2.61,2.61,0,0,0-1.13.17,1,1,0,0,0-.44.46,5.2,5.2,0,0,0-.13,1.48v6.75a6.69,6.69,0,0,0,.29,2.45,2.29,2.29,0,0,0,.94,1,3.1,3.1,0,0,0,1.65.4,3.59,3.59,0,0,0,2-.5,3.15,3.15,0,0,0,1.21-1.39,8.38,8.38,0,0,0,.4-3.08V3.71a3.21,3.21,0,0,0-.2-1.32,1.18,1.18,0,0,0-.5-.55A3,3,0,0,0,116,1.6V1.23h4.89V1.6h-.29a1.86,1.86,0,0,0-1,.24,1.31,1.31,0,0,0-.58.7,3.5,3.5,0,0,0-.13,1.17V9a13.16,13.16,0,0,1-.33,3.5,4,4,0,0,1-1.6,2,5.87,5.87,0,0,1-3.46.9,6.71,6.71,0,0,1-2.83-.48,4.17,4.17,0,0,1-1.93-1.66,5.76,5.76,0,0,1-.56-2.74V3.71A5.15,5.15,0,0,0,108,2.23a1.1,1.1,0,0,0-.47-.46,3,3,0,0,0-1.23-.17Z"/><path class="a" d="M126.87,8.73v3.86A4,4,0,0,0,127,14a1,1,0,0,0,.49.46,3.3,3.3,0,0,0,1.32.18V15H121.6v-.38a3.23,3.23,0,0,0,1.32-.18,1,1,0,0,0,.49-.46,3.91,3.91,0,0,0,.15-1.41V3.65a3.94,3.94,0,0,0-.15-1.41,1,1,0,0,0-.49-.46,3.46,3.46,0,0,0-1.32-.18V1.23h6.55a15.2,15.2,0,0,1,3.75.34,3.82,3.82,0,0,1,1.94,1.28A3.38,3.38,0,0,1,134.59,5a3.18,3.18,0,0,1-1.13,2.52,4.54,4.54,0,0,1-2,1l3.4,4.66a6.11,6.11,0,0,0,1,1.13,1.77,1.77,0,0,0,1,.35V15h-4.45l-4.55-6.29Zm0-6.76V8h.59a6.85,6.85,0,0,0,2.16-.26,2.17,2.17,0,0,0,1.14-.93,3.46,3.46,0,0,0,.41-1.77,3.2,3.2,0,0,0-.76-2.33A3.4,3.4,0,0,0,128,2Z"/><path class="a" d="M144.83,1a7.16,7.16,0,0,1,5.48,2,6.8,6.8,0,0,1,2.11,5.11,7.3,7.3,0,0,1-1.57,4.62,7.493,7.493,0,0,1-13.38-4.65A6.8,6.8,0,0,1,139.57,3a6.91,6.91,0,0,1,5.26-2m.13.65a3.18,3.18,0,0,0-3,1.93,10.1,10.1,0,0,0-.82,4.56,8.65,8.65,0,0,0,1.27,5.21,2.92,2.92,0,0,0,2.48,1.17,3,3,0,0,0,1.79-.5A4.21,4.21,0,0,0,148.15,12a11.331,11.331,0,0,0,.51-3.73,12.061,12.061,0,0,0-.52-4.09,4,4,0,0,0-1.33-1.91A3.09,3.09,0,0,0,145,1.69"/><path class="a" d="M163.19.92l.12,4.59h-.43a4.65,4.65,0,0,0-1.48-2.78,3.81,3.81,0,0,0-2.56-1,2.43,2.43,0,0,0-1.68.55,1.69,1.69,0,0,0-.62,1.28,1.49,1.49,0,0,0,.22.81,3.49,3.49,0,0,0,1,.94A18.592,18.592,0,0,0,160,6.45a10.28,10.28,0,0,1,3.34,2.25,3.8,3.8,0,0,1,.85,2.42,3.84,3.84,0,0,1-1.38,3,5.06,5.06,0,0,1-3.5,1.24,6.33,6.33,0,0,1-1.26-.13,10.779,10.779,0,0,1-1.49-.5,2.19,2.19,0,0,0-.82-.2,1,1,0,0,0-.58.2,1.4,1.4,0,0,0-.48.62h-.39V10.12h.39a5.85,5.85,0,0,0,1.76,3.35,4.14,4.14,0,0,0,2.81,1.16A2.66,2.66,0,0,0,161.1,14a1.88,1.88,0,0,0,.7-1.44,1.83,1.83,0,0,0-.27-1,3,3,0,0,0-.81-.87,12.279,12.279,0,0,0-1.91-1.07A17.34,17.34,0,0,1,156,8.11a4.78,4.78,0,0,1-1.29-1.47,3.4,3.4,0,0,1-.46-1.76,3.74,3.74,0,0,1,1.24-2.81A4.41,4.41,0,0,1,158.65.92a5.46,5.46,0,0,1,1.34.16,6.85,6.85,0,0,1,1.19.45,2.84,2.84,0,0,0,1,.33.53.53,0,0,0,.43-.17,1.8,1.8,0,0,0,.29-.77Z"/><path class="a" d="M68.53,18.68v5.2h.37a3.49,3.49,0,0,0,1.41-.25,2.25,2.25,0,0,0,.92-.85,3.78,3.78,0,0,0,.49-1.62h.34v6.36h-.34a3.22,3.22,0,0,0-1-2.38,3.06,3.06,0,0,0-1.83-.57h-.37v3.87a4.09,4.09,0,0,0,.11,1.22,1.09,1.09,0,0,0,.43.42,1.82,1.82,0,0,0,.87.18h.42v.34H63.59v-.34H64a2,2,0,0,0,.91-.19.88.88,0,0,0,.38-.46,3.63,3.63,0,0,0,.11-1.17V20.12a4.09,4.09,0,0,0-.11-1.22.94.94,0,0,0-.42-.42A1.82,1.82,0,0,0,64,18.3h-.43V18H74.52v3.63h-.38a3.43,3.43,0,0,0-.69-1.9,3,3,0,0,0-1.6-.86,10.6,10.6,0,0,0-2.11-.14Z"/><path class="a" d="M80.15,18.68v5.15h.25a2.08,2.08,0,0,0,1.79-.75,4.48,4.48,0,0,0,.7-2.23h.37v6.62h-.37a4.65,4.65,0,0,0-.48-1.77,2,2,0,0,0-.85-.93,3.31,3.31,0,0,0-1.41-.24V28.1a5,5,0,0,0,.09,1.27.7.7,0,0,0,.34.38,1.59,1.59,0,0,0,.8.15h.77a4.72,4.72,0,0,0,2.91-.82,4.54,4.54,0,0,0,1.58-2.5H87l-.59,4H75.2v-.34h.44a1.91,1.91,0,0,0,.9-.19.9.9,0,0,0,.39-.46,4.12,4.12,0,0,0,.1-1.17v-8.3a5.54,5.54,0,0,0,0-1.06.87.87,0,0,0-.35-.5,1.71,1.71,0,0,0-1-.26H75.2V18H86.05v3.7h-.36a4.55,4.55,0,0,0-.78-2,2.88,2.88,0,0,0-1.42-.88,8,8,0,0,0-2-.17Z"/><path class="a" d="M87.83,30.6v-.34h.43a1.76,1.76,0,0,0,.86-.17,1.1,1.1,0,0,0,.45-.48,4,4,0,0,0,.09-1.17V20.12a4.09,4.09,0,0,0-.11-1.22.92.92,0,0,0-.43-.42,1.72,1.72,0,0,0-.86-.18h-.43V18h5.8a9.31,9.31,0,0,1,3.74.62A5.48,5.48,0,0,1,100,20.85a7.1,7.1,0,0,1,.46,5.92,5.86,5.86,0,0,1-1.14,1.86A5.45,5.45,0,0,1,97.7,29.8a8.26,8.26,0,0,1-2.23.69,10.36,10.36,0,0,1-1.84.11Zm4.94-11.93v9.87a3.6,3.6,0,0,0,.07,1,.67.67,0,0,0,.26.27,1.7,1.7,0,0,0,.75.14,2.93,2.93,0,0,0,2.44-1.07,7.15,7.15,0,0,0,1.15-4.46,8.23,8.23,0,0,0-.79-3.89A3.3,3.3,0,0,0,95.06,19a6.64,6.64,0,0,0-2.29-.28"/><path class="a" d="M106.69,24.88v3.51a4,4,0,0,0,.13,1.29,1,1,0,0,0,.46.42,3.07,3.07,0,0,0,1.21.16v.34h-6.58v-.34a2.85,2.85,0,0,0,1.22-.17.86.86,0,0,0,.44-.42,3.53,3.53,0,0,0,.14-1.28V20.17a3.63,3.63,0,0,0-.14-1.29.85.85,0,0,0-.45-.42,3,3,0,0,0-1.21-.16V18h5.65a6.46,6.46,0,0,1,4,1,3,3,0,0,1,1.22,2.43,3.09,3.09,0,0,1-.79,2.11,4,4,0,0,1-2.16,1.19,15,15,0,0,1-3.14.23m0-6.2v5.47h.48a2.34,2.34,0,0,0,1.8-.68,3,3,0,0,0,.63-2.09,2.91,2.91,0,0,0-.63-2.07,2.51,2.51,0,0,0-1.88-.65Z"/><path class="a" d="M119.76,27h-4.57l-.55,1.23a2.67,2.67,0,0,0-.27,1,.85.85,0,0,0,.44.79,3.88,3.88,0,0,0,1.27.22v.34h-4.31v-.34a2,2,0,0,0,1.15-.56,7.51,7.51,0,0,0,1.08-1.9l4.64-10.09h.17l4.68,10.38a6,6,0,0,0,1.1,1.85,1.45,1.45,0,0,0,.91.34v.34h-6.27v-.34h.26a1.94,1.94,0,0,0,1.06-.21.49.49,0,0,0,.21-.42,1.07,1.07,0,0,0-.06-.35,5.8,5.8,0,0,0-.28-.7Zm-.32-.69L117.51,22l-2,4.35Z"/><path class="a" d="M126.43,34v-.41a3.5,3.5,0,0,0,1.61-1.2,2.69,2.69,0,0,0,.51-1.52.4.4,0,0,0-.07-.24.19.19,0,0,0-.13-.07.46.46,0,0,0-.18.06,1.29,1.29,0,0,1-.68.16,1.38,1.38,0,0,1-1-.43,1.43,1.43,0,0,1-.41-1,1.46,1.46,0,0,1,.48-1.08,1.6,1.6,0,0,1,1.16-.47,1.88,1.88,0,0,1,1.4.62,2.4,2.4,0,0,1,.58,1.71,3.69,3.69,0,0,1-.83,2.36A4.56,4.56,0,0,1,126.43,34"/><path class="a" d="M143.85,17.66l.11,4.22h-.4a4.25,4.25,0,0,0-1.36-2.55,3.43,3.43,0,0,0-2.35-1,2.24,2.24,0,0,0-1.54.51,1.54,1.54,0,0,0-.57,1.18,1.44,1.44,0,0,0,.2.74,3.19,3.19,0,0,0,.89.86,18,18,0,0,0,2.08,1.1A9.24,9.24,0,0,1,144,24.81a3.41,3.41,0,0,1,.79,2.22,3.57,3.57,0,0,1-1.27,2.73,4.62,4.62,0,0,1-3.21,1.14,4.8,4.8,0,0,1-1.16-.12,8.86,8.86,0,0,1-1.36-.45,2,2,0,0,0-.76-.19.93.93,0,0,0-.53.19,1.36,1.36,0,0,0-.45.56h-.35V26.11h.3a5.48,5.48,0,0,0,1.63,3.09,3.83,3.83,0,0,0,2.58,1.05,2.44,2.44,0,0,0,1.7-.57,1.69,1.69,0,0,0,.4-2.19,2.89,2.89,0,0,0-.74-.8,12.411,12.411,0,0,0-1.76-1,14.64,14.64,0,0,1-2.55-1.44,4.63,4.63,0,0,1-1.19-1.33,3.37,3.37,0,0,1-.41-1.63,3.41,3.41,0,0,1,1.13-2.57,4,4,0,0,1,2.87-1.07,5.59,5.59,0,0,1,1.23.15,6.91,6.91,0,0,1,1.09.42,2.71,2.71,0,0,0,.9.3.54.54,0,0,0,.4-.15,1.77,1.77,0,0,0,.26-.72Z"/><path class="a" d="M147.69,27.73a1.56,1.56,0,0,1,1.13.46,1.51,1.51,0,0,1,0,2.19,1.61,1.61,0,0,1-2.25,0,1.45,1.45,0,0,1-.46-1.09,1.47,1.47,0,0,1,.46-1.1,1.57,1.57,0,0,1,1.12-.46"/><path class="a" d="M158,27h-4.58l-.54,1.23a2.67,2.67,0,0,0-.27,1A.84.84,0,0,0,153,30a3.76,3.76,0,0,0,1.27.22v.34H150v-.34a2,2,0,0,0,1.15-.56,7.571,7.571,0,0,0,1.1-1.92l4.64-10.09h.18l4.67,10.38a6.43,6.43,0,0,0,1.1,1.85,1.48,1.48,0,0,0,.92.34v.34h-6.27v-.34h.26a1.94,1.94,0,0,0,1.06-.21.49.49,0,0,0,.21-.42,1.07,1.07,0,0,0-.06-.35,5.8,5.8,0,0,0-.28-.7Zm-.33-.69L155.73,22l-2,4.35Z"/><path class="a" d="M166.13,27.73a1.6,1.6,0,0,1,1.14.46,1.51,1.51,0,0,1,.46,1.1,1.46,1.46,0,0,1-.47,1.09,1.61,1.61,0,0,1-2.25,0,1.45,1.45,0,0,1-.46-1.09,1.47,1.47,0,0,1,.46-1.1,1.57,1.57,0,0,1,1.12-.46"/><rect class="a" width="104.89" height="1.37" transform="translate(64.32 35.1)"/><path class="a" d="M67.75,39.51c-.61.25-1.12.61-1.13,1.17a.656.656,0,0,0,.54.64c.11,0,.15.12.15.23a.63.63,0,0,1-.65.6,1,1,0,0,1-1-1.12c0-1.08,1-1.65,1.93-1.88Zm2.22,0c-.62.25-1.11.63-1.12,1.17,0,.34.2.53.55.64a.21.21,0,0,1,.14.23.61.61,0,0,1-.64.62,1.07,1.07,0,0,1-1-1.16c0-1.06,1-1.63,1.92-1.86Z"/><path class="a" d="M75.19,45.56c-.15.39-.56,1.5-.74,1.89H69.09l.08-.36c.92-.07,1-.17,1.17-1.08l.92-4.71c.16-.86.1-1-.83-1l.09-.37h3.26l-.08.37c-.9.07-1,.17-1.14,1L71.67,46c-.07.43-.07.68.07.84s.47.2,1,.2A1.71,1.71,0,0,0,74,46.63a4.6,4.6,0,0,0,.84-1.22Z"/><path class="a" d="M81,46.28a3.37,3.37,0,0,1-2,1.31c-.25,0-.48-.16-.28-1.15l.17-.79h0A7.18,7.18,0,0,1,77.62,47a2.06,2.06,0,0,1-1.18.57c-.41,0-.77-.46-.77-1.38a4.19,4.19,0,0,1,1.32-3,3.9,3.9,0,0,1,2.38-1,3.83,3.83,0,0,1,.73.09,3.589,3.589,0,0,0,.59.07h.06c-.22.91-.53,2.28-.77,3.69-.08.37,0,.47,0,.47a2.51,2.51,0,0,0,.8-.58Zm-1.91-1.55c.15-.53.35-1.45.41-1.83a1.69,1.69,0,0,0-.7-.15,1,1,0,0,0-.62.18A4.11,4.11,0,0,0,77,46c0,.48.11.69.28.69.42,0,1.55-1.36,1.8-1.92"/><path class="a" d="M90.15,39.9c0,.28-.13,1.19-.21,1.8h-.38a2.88,2.88,0,0,0-.2-1.05c-.13-.24-.34-.33-1.12-.33h-.73c-.4,0-.46.08-.53.47l-.48,2.55h1.07c1,0,1.05-.09,1.37-.85h.37l-.45,2.33h-.38c0-.86,0-1-1-1h-1.1L86,46c-.17.93-.08,1,1,1.1l-.09.36H83.5l.09-.36c.83-.08.93-.18,1.1-1.1l.89-4.61c.17-1,.13-1-.78-1.11l.08-.37Z"/><path class="a" d="M95.32,46.33a3.2,3.2,0,0,1-1.89,1.26c-.34,0-.47-.35-.27-1.2.07-.29.13-.56.18-.83h0a7.33,7.33,0,0,1-1.82,1.75,1.53,1.53,0,0,1-.85.28c-.34,0-.75-.22-.43-1.62.19-.76.36-1.53.54-2.31.08-.35.07-.43,0-.48a2.86,2.86,0,0,0-.75.51l-.14-.33a3.78,3.78,0,0,1,1.9-1.17c.31,0,.41.27.21,1.13s-.4,1.72-.6,2.56c-.11.55,0,.75.12.75.57,0,1.66-1.41,2-2,.16-.68.33-1.4.47-2.13l1.11-.32h.15c-.3,1.2-.6,2.46-.87,3.87-.07.39-.06.49,0,.49a2.19,2.19,0,0,0,.77-.53Z"/><path class="a" d="M99.88,46.19a3.65,3.65,0,0,1-2.62,1.4c-.64,0-1.39-.35-1.39-1.72a3.87,3.87,0,0,1,1.37-3,3.32,3.32,0,0,1,1.8-.71,1,1,0,0,1,1.14,1c0,1.19-1.86,1.78-3,2.08a2,2,0,0,0,0,.33c0,.61.21,1.17.84,1.17a2.71,2.71,0,0,0,1.68-.87Zm-1.72-3.35a2.77,2.77,0,0,0-1,2c1.4-.4,1.84-.9,1.84-1.5,0-.44-.27-.62-.49-.62a.68.68,0,0,0-.4.13"/><path class="a" d="M102.55,44.07c.57-1.06,1.2-1.88,1.69-1.88a.66.66,0,0,1,.53.3.56.56,0,0,1,0,.64,1.62,1.62,0,0,1-.38.45.21.21,0,0,1-.28,0,.59.59,0,0,0-.44-.22c-.11,0-.25.07-.5.41a5.49,5.49,0,0,0-.72,1.34c-.16.67-.34,1.55-.45,2.23a8.83,8.83,0,0,0-1.14.23l-.09-.09c.29-1.23.56-2.5.8-3.75.07-.37.07-.52,0-.52a2,2,0,0,0-.74.47l-.17-.31a3.6,3.6,0,0,1,1.81-1.19q.5,0,.21,1.35l-.12.53Z"/><path class="a" d="M109.61,42.28c-.2.24-.45.56-.79.92-.86.93-2.27,2.28-2.95,3a2.36,2.36,0,0,1,.91.17,3.14,3.14,0,0,0,1,.24c.3,0,.64-.19,1.17-1l.3.22c-.67,1.46-1.19,1.86-1.73,1.86a4.41,4.41,0,0,1-1.51-.56c-.47-.21-.65-.19-.84-.05a1.43,1.43,0,0,0-.34.39.19.19,0,0,1-.16.11c-.16-.09-.36-.49.43-1.29s2.09-2,3.13-3a2.45,2.45,0,0,1-.75,0c-.3,0-.69-.06-1-.06-.6,0-.86.34-1.21.9l-.33-.19a8.14,8.14,0,0,1,.55-1c.31-.45.6-.68.91-.68a5.28,5.28,0,0,1,1.11.14,5.5,5.5,0,0,0,1.07.12,1.33,1.33,0,0,0,.78-.44Z"/><path class="a" d="M114.89,46.28A3.37,3.37,0,0,1,113,47.59c-.25,0-.48-.16-.28-1.15l.16-.79h0A7.51,7.51,0,0,1,111.54,47a2.09,2.09,0,0,1-1.19.57c-.4,0-.77-.46-.77-1.38a4.2,4.2,0,0,1,1.33-3,3.28,3.28,0,0,1,3.11-.9,3.59,3.59,0,0,0,.59.07h.06c-.22.91-.53,2.28-.78,3.69-.07.37,0,.47,0,.47a2.62,2.62,0,0,0,.8-.58ZM113,44.73a18,18,0,0,0,.41-1.83,1.68,1.68,0,0,0-.69-.15,1.1,1.1,0,0,0-.64.18,4.15,4.15,0,0,0-1.16,3c0,.48.11.69.28.69.42,0,1.55-1.36,1.8-1.92"/><path class="a" d="M121.64,39.9c1.52,0,2.63.54,2.63,2a2.791,2.791,0,0,1-2.83,2.55h-.39l-.81-.22L119.89,46c-.18,1-.08,1,.94,1.12l-.07.36h-3.37l.08-.36c.87-.08,1-.16,1.14-1.12l.9-4.56c.19-1,.11-1-.77-1.14l.08-.37Zm-1.31,3.9a1.82,1.82,0,0,0,.74.14,2,2,0,0,0,1.8-2.15c0-1-.51-1.46-1.3-1.46a1.1,1.1,0,0,0-.47.1c-.12.06-.18.22-.26.59Z"/><path class="a" d="M126.36,44.07c.57-1.06,1.2-1.88,1.69-1.88a.66.66,0,0,1,.53.3.56.56,0,0,1,0,.64,1.811,1.811,0,0,1-.37.45c-.11.07-.2.08-.28,0a.66.66,0,0,0-.45-.22c-.11,0-.25.07-.5.41a5.49,5.49,0,0,0-.72,1.34c-.16.67-.33,1.55-.45,2.23a8.831,8.831,0,0,0-1.14.23l-.09-.09c.29-1.23.57-2.5.8-3.75.07-.37.07-.52,0-.52a1.89,1.89,0,0,0-.75.47l-.17-.31a3.68,3.68,0,0,1,1.81-1.19c.33,0,.39.45.21,1.35l-.12.53Z"/><path class="a" d="M128.51,45.72a3.48,3.48,0,0,1,1.75-3.11,3,3,0,0,1,1.43-.42c1.08,0,1.66.72,1.66,1.84a3.71,3.71,0,0,1-1.24,2.81,3,3,0,0,1-1.93.75,1.65,1.65,0,0,1-1.67-1.87M131,47c.5-.22,1.08-1.45,1.08-3,0-.91-.34-1.32-.78-1.32a1,1,0,0,0-.34.07c-.36.18-1.1,1.14-1.1,3,0,.87.36,1.32.81,1.32A1.09,1.09,0,0,0,131,47"/><path class="a" d="M137.18,42.86h-1.11l-.62,3c-.12.54-.06.69.05.69a2.49,2.49,0,0,0,1-.64l.18.29a3.48,3.48,0,0,1-2,1.31c-.38,0-.62-.38-.35-1.62l.65-3.06h-.84L134,42.8l.32-.41h.7l.25-1.08,1.19-.8.13.1-.41,1.78h1.31Z"/><path class="a" d="M141.25,46.19a3.68,3.68,0,0,1-2.63,1.4c-.64,0-1.39-.35-1.39-1.72a3.85,3.85,0,0,1,1.38-3,3.32,3.32,0,0,1,1.79-.71,1,1,0,0,1,1.14,1c0,1.19-1.86,1.78-3,2.08v.33c0,.61.2,1.17.83,1.17a2.73,2.73,0,0,0,1.69-.87Zm-1.72-3.35a2.81,2.81,0,0,0-1,2c1.4-.4,1.84-.9,1.84-1.5,0-.44-.27-.62-.49-.62a.63.63,0,0,0-.39.13"/><path class="a" d="M145.6,46.28a3.54,3.54,0,0,1-2.4,1.31c-.85,0-1.37-.62-1.37-1.73a3.83,3.83,0,0,1,1.25-2.8,3.36,3.36,0,0,1,1.95-.87c.54,0,1,.28,1,.65a.75.75,0,0,1-.45.65.21.21,0,0,1-.31-.05c-.29-.46-.59-.65-.91-.65s-.52.23-.72.61a4.84,4.84,0,0,0-.47,2.14c0,.84.29,1.21.77,1.21A2.63,2.63,0,0,0,145.4,46Z"/><path class="a" d="M149.67,42.86h-1.1l-.63,3c-.12.54-.06.69.06.69a2.54,2.54,0,0,0,1-.64l.18.29a3.45,3.45,0,0,1-2,1.31c-.37,0-.61-.38-.34-1.62l.64-3.06h-.84v-.11l.31-.41h.7l.26-1.08,1.18-.8.13.1-.41,1.78H150Z"/><path class="a" d="M149.76,45.72a3.48,3.48,0,0,1,1.75-3.11,3,3,0,0,1,1.43-.42c1.08,0,1.66.72,1.66,1.84a3.71,3.71,0,0,1-1.24,2.81,3,3,0,0,1-1.92.75,1.652,1.652,0,0,1-1.68-1.87M152.2,47c.52-.22,1.09-1.45,1.09-3,0-.91-.34-1.32-.78-1.32a1,1,0,0,0-.34.07c-.36.18-1.09,1.14-1.09,3,0,.87.36,1.32.8,1.32a1,1,0,0,0,.32-.05"/><path class="a" d="M157.13,44.07c.57-1.06,1.2-1.88,1.68-1.88a.7.7,0,0,1,.54.3.56.56,0,0,1,0,.64,1.46,1.46,0,0,1-.37.45.21.21,0,0,1-.28,0,.62.62,0,0,0-.44-.22c-.12,0-.26.07-.5.41a5.49,5.49,0,0,0-.72,1.34c-.16.67-.34,1.55-.46,2.23a9.191,9.191,0,0,0-1.14.23l-.09-.09c.29-1.23.57-2.5.81-3.75.06-.37.06-.52,0-.52a2,2,0,0,0-.74.47l-.18-.31A3.66,3.66,0,0,1,157,42.19q.48,0,.21,1.35l-.12.53Z"/><path class="a" d="M164.51,46.28a3.37,3.37,0,0,1-1.93,1.31c-.25,0-.47-.16-.28-1.15l.16-.79h0a7.18,7.18,0,0,1-1.3,1.35,2.06,2.06,0,0,1-1.18.57c-.41,0-.77-.46-.77-1.38a4.16,4.16,0,0,1,1.33-3,3.88,3.88,0,0,1,2.37-1,3.93,3.93,0,0,1,.73.09,3.59,3.59,0,0,0,.59.07h.06c-.21.91-.53,2.28-.78,3.69-.07.37,0,.47,0,.47a2.51,2.51,0,0,0,.8-.58Zm-1.91-1.55a15.67,15.67,0,0,0,.4-1.83,1.68,1.68,0,0,0-.69-.15,1,1,0,0,0-.63.18,4.11,4.11,0,0,0-1.16,3c0,.48.1.69.27.69.42,0,1.55-1.36,1.8-1.92"/><path class="a" d="M164.79,41.86c.63-.25,1.12-.62,1.13-1.16a.62.62,0,0,0-.54-.63.2.2,0,0,1-.14-.24.62.62,0,0,1,.64-.61,1.05,1.05,0,0,1,1,1.16c0,1.06-1,1.63-1.92,1.83Zm2.25,0c.59-.25,1.11-.59,1.12-1.16a.625.625,0,0,0-.56-.63.24.24,0,0,1-.13-.24.63.63,0,0,1,.65-.61,1.07,1.07,0,0,1,1,1.14c0,1.08-1,1.65-1.93,1.85Z"/><path class="a" d="M69.51,53.88,68.07,61.1A8,8,0,0,1,69,61a1.45,1.45,0,0,1,1,.22,1.12,1.12,0,0,1,.23.85,1.41,1.41,0,0,0-.77-.19,7.138,7.138,0,0,0-1.3.09l-.78.1-1,.15h-.4c-.4,0-.63-.33-.7-1a1.33,1.33,0,0,0,.57.14A5.35,5.35,0,0,0,67,61.27l1.2-5.88a3.64,3.64,0,0,1-1.42.42c-.51,0-.78-.33-.78-1v-.15a1.11,1.11,0,0,0,.75.28,6.29,6.29,0,0,0,2.41-.9l.39-.18"/><path class="a" d="M74.34,62.1a2.06,2.06,0,0,1-1.69-.78,3.19,3.19,0,0,1-.63-2.1,5.82,5.82,0,0,1,1.25-3.74,3.65,3.65,0,0,1,3-1.59,2.14,2.14,0,0,1,1.75.77,3.36,3.36,0,0,1,.63,2.15,5.74,5.74,0,0,1-1.27,3.73,3.76,3.76,0,0,1-3,1.56m.45-.59a2.22,2.22,0,0,0,1.84-1.34,5.89,5.89,0,0,0,.8-3.1c0-1.73-.54-2.58-1.62-2.58A2.22,2.22,0,0,0,74,55.82a6.07,6.07,0,0,0-.78,3.12c0,1.71.53,2.57,1.6,2.57"/><path class="a" d="M81.65,62.1A2.06,2.06,0,0,1,80,61.32a3.25,3.25,0,0,1-.64-2.1,5.83,5.83,0,0,1,1.26-3.74,3.66,3.66,0,0,1,3-1.59,2.17,2.17,0,0,1,1.75.77A3.36,3.36,0,0,1,86,56.81a5.74,5.74,0,0,1-1.27,3.73,3.76,3.76,0,0,1-3,1.56m.44-.59a2.22,2.22,0,0,0,1.85-1.34,5.89,5.89,0,0,0,.8-3.1c0-1.73-.54-2.58-1.62-2.58a2.22,2.22,0,0,0-1.84,1.33,6.07,6.07,0,0,0-.78,3.12c0,1.71.53,2.57,1.59,2.57"/><path class="a" d="M87.89,63c-.41-.19-.6-.44-.6-.77s.75-1.5,2.26-3.2c1.77-2,3-3.26,3.59-3.87a4.15,4.15,0,0,1-1.86.46h-.5a.659.659,0,0,1,0,.13,2.45,2.45,0,0,1-.6,1.67,2,2,0,0,1-1.5.68,1.59,1.59,0,0,1-1.12-.41,1.28,1.28,0,0,1-.44-1,2.09,2.09,0,0,1,.45-1.29,1.2,1.2,0,0,1,.93-.61.46.46,0,0,1,.41.27,1.58,1.58,0,0,0-.74.62,1.79,1.79,0,0,0-.29,1,.88.88,0,0,0,.27.66.85.85,0,0,0,.65.26,1,1,0,0,0,.87-.46A2,2,0,0,0,90,55.83a1.8,1.8,0,0,0,0-.37c-.53-.21-.79-.43-.79-.65s.16-.42.46-.69a2,2,0,0,0,1.82.81A4,4,0,0,0,94,54.12l.12-.1a.91.91,0,0,1,.44-.23.53.53,0,0,1,.4.28,37.39,37.39,0,0,0-4,4.28,37.161,37.161,0,0,0-2.3,2.93A4.69,4.69,0,0,0,87.89,63m5-4.61a.65.65,0,0,1,.49-.26,1,1,0,0,1,.76.53,1.89,1.89,0,0,1,.37,1.1,2.15,2.15,0,0,1-.63,1.54,2,2,0,0,1-1.49.64,1.42,1.42,0,0,1-1.07-.43,1.49,1.49,0,0,1-.42-1.09A1.85,1.85,0,0,1,91.44,59a2.42,2.42,0,0,1,1.46-.66m.31.45H93a1.21,1.21,0,0,0-.92.47,1.61,1.61,0,0,0-.4,1.08c0,.68.29,1,.88,1a1.09,1.09,0,0,0,.84-.4,1.43,1.43,0,0,0,.36-1,1.46,1.46,0,0,0-.55-1.17"/><path class="a" d="M101.69,59.13l-.48,2.32a5.5,5.5,0,0,0-.1.65.81.81,0,0,0,.07.32,2.35,2.35,0,0,1-1,.27c-.19,0-.29-.08-.29-.23a4.7,4.7,0,0,1,.12-.66l.56-2.77c-.91-.19-1.36-.49-1.36-.88a1,1,0,0,1,.05-.31,3.86,3.86,0,0,0,1.41.68l.38-1.83a3.741,3.741,0,0,0,.09-.64.5.5,0,0,0-.13-.34,3.34,3.34,0,0,1,1-.26c.23,0,.34.13.34.38,0,.06-.06.36-.18.92l-.37,1.87a4.14,4.14,0,0,0,2.54-.75,2.34,2.34,0,0,0,1-1.93,1.27,1.27,0,0,0-.52-1,2.21,2.21,0,0,0-1.37-.39,4.81,4.81,0,0,0-4.06,2.07,1.71,1.71,0,0,1-.13-.51c0-.54.49-1,1.47-1.49a7.3,7.3,0,0,1,3.16-.69c1.73,0,2.59.62,2.59,1.86a2.92,2.92,0,0,1-1.35,2.37,5,5,0,0,1-3.13,1Z"/><path class="a" d="M111.57,58.68a9,9,0,0,1-1.71,2.38,2.84,2.84,0,0,1-1.77,1,1.07,1.07,0,0,1-.92-.51,2.27,2.27,0,0,1-.35-1.32,4.46,4.46,0,0,1,1-2.91A3,3,0,0,1,110.23,56a4,4,0,0,1,1.77.49c.09-.32.47-.49,1.15-.49h.2a3.87,3.87,0,0,0-.47,1.26l-.09.45a8.92,8.92,0,0,0-.15,1.75c0,.77.18,1.16.55,1.16a2.83,2.83,0,0,0,1.6-1,13.49,13.49,0,0,0,2-2.43l.42.29a11.55,11.55,0,0,1-2.28,2.91,3.64,3.64,0,0,1-2.22,1.17c-.78,0-1.17-.64-1.17-1.91V58.59m.25-1.27a3.81,3.81,0,0,0-1.89-.72,1.67,1.67,0,0,0-1.41,1,4.26,4.26,0,0,0-.6,2.3c0,.71.24,1.06.72,1.06s1.5-1.1,3-3.31l.22-.3"/><path class="a" d="M117.32,60c1.28-2.64,2.44-4,3.45-4,.8,0,1.2.78,1.2,2.33V59a6.639,6.639,0,0,0,.12,1.54c.07.28.21.43.42.43a1.782,1.782,0,0,0,1.06-.73,30.749,30.749,0,0,0,1.93-2.91l.45.26a17.86,17.86,0,0,1-2.13,3.25,2.52,2.52,0,0,1-1.68,1.06,1,1,0,0,1-1-.64A6.3,6.3,0,0,1,120.9,59v-.45a4.37,4.37,0,0,0-.11-1.22c-.08-.23-.21-.35-.4-.35-.47,0-1.24.93-2.29,2.78l-.51.88a2.4,2.4,0,0,0-.41,1,.44.44,0,0,0,.07.24,1.62,1.62,0,0,1-.53.13c-.37,0-.55-.2-.55-.6a9.827,9.827,0,0,1,.14-1.52l.12-1.14c0-.49.08-.87.08-1.14a1.34,1.34,0,0,0-.26-.88l.38-.12a1.67,1.67,0,0,1,.53-.12c.29,0,.43.2.43.6a5.933,5.933,0,0,1-.09,1.09v.32Z"/><path class="a" d="M128.94,58.68a8.78,8.78,0,0,1-1.71,2.38,2.84,2.84,0,0,1-1.77,1,1.07,1.07,0,0,1-.92-.51,2.27,2.27,0,0,1-.34-1.32,4.41,4.41,0,0,1,1-2.91A3,3,0,0,1,127.6,56a4,4,0,0,1,1.77.49c.09-.32.48-.49,1.15-.49h.21a3.65,3.65,0,0,0-.47,1.26l-.09.45a8.161,8.161,0,0,0-.16,1.75c0,.77.18,1.16.55,1.16a2.83,2.83,0,0,0,1.6-1,13.509,13.509,0,0,0,2-2.43l.42.29a11.811,11.811,0,0,1-2.29,2.91,3.64,3.64,0,0,1-2.21,1.17c-.78,0-1.17-.64-1.17-1.91V58.59m.25-1.27a3.81,3.81,0,0,0-1.89-.72,1.67,1.67,0,0,0-1.41,1,4.26,4.26,0,0,0-.59,2.3c0,.71.23,1.06.71,1.06s1.5-1.1,3-3.31l.22-.3"/><path class="a" d="M134.7,60.05q2-4,3.44-4c.43,0,.66.31.66.93a12.211,12.211,0,0,1-.29,1.77l-.32,1.6a14.639,14.639,0,0,1,2-3.12c.69-.79,1.28-1.18,1.78-1.18s.82.32.82.94a10.611,10.611,0,0,1-.24,1.54l-.17.82a6.541,6.541,0,0,0-.15,1.11c0,.43.15.64.46.64.69,0,1.75-1.26,3.19-3.76l.46.24Q144,62,142.2,62c-.74,0-1.12-.48-1.12-1.43a9.1,9.1,0,0,1,.22-1.53l.15-.73a6.711,6.711,0,0,0,.15-.92c0-.15-.08-.22-.23-.22-.4,0-1.09.75-2.1,2.26a11,11,0,0,0-1.37,2.36.3.3,0,0,0,0,.11l-.27.08h-.24c-.34,0-.51-.15-.51-.47a7,7,0,0,1,.17-.86,2.488,2.488,0,0,1,.12-.55l.22-1.12a11.183,11.183,0,0,0,.25-1.45c0-.24-.09-.36-.26-.36-.4,0-1,.68-1.72,2a9.47,9.47,0,0,0-1.14,2.42.33.33,0,0,0,.09.22,1.51,1.51,0,0,1-.54.13q-.57,0-.57-.6s.06-.56.17-1.53l.12-1.13c0-.39.07-.76.07-1.09a1.39,1.39,0,0,0-.27-.93,3.2,3.2,0,0,1,.88-.23c.32,0,.48.19.48.55a9.326,9.326,0,0,1-.13,1.46Z"/><path class="a" d="M145.73,59.71c0,1,.45,1.54,1.34,1.54a4.36,4.36,0,0,0,2.57-1.08,11.2,11.2,0,0,0,2.52-2.85l.46.25a9.92,9.92,0,0,1-2.75,3.2A5.51,5.51,0,0,1,146.65,62a2,2,0,0,1-1.54-.62,2.37,2.37,0,0,1-.56-1.67,3.69,3.69,0,0,1,1-2.62A3.31,3.31,0,0,1,148,56a1.76,1.76,0,0,1,1.12.34,1.13,1.13,0,0,1,.42.92A2,2,0,0,1,148.41,59a5,5,0,0,1-2.68.73m.05-.51a3.59,3.59,0,0,0,1.94-.64,1.63,1.63,0,0,0,.8-1.33c0-.44-.2-.67-.61-.67a1.75,1.75,0,0,0-1.36.77,3.58,3.58,0,0,0-.77,1.87"/><path class="a" d="M152.75,60q1.92-4,3.45-4c.8,0,1.19.78,1.19,2.33v.63a7.46,7.46,0,0,0,.11,1.54c.08.28.22.43.43.43a1.769,1.769,0,0,0,1.05-.73,28.847,28.847,0,0,0,1.93-2.91l.46.26a18.41,18.41,0,0,1-2.13,3.25,2.51,2.51,0,0,1-1.69,1.06,1,1,0,0,1-1-.64,6.54,6.54,0,0,1-.28-2.26v-.45a4.28,4.28,0,0,0-.12-1.22c-.07-.23-.2-.35-.39-.35-.48,0-1.24.93-2.3,2.78-.26.46-.42.75-.5.88a2.45,2.45,0,0,0-.42,1,.55.55,0,0,0,.07.24,1.62,1.62,0,0,1-.53.13c-.36,0-.55-.2-.55-.6a9.188,9.188,0,0,1,.15-1.52l.11-1.14a9.591,9.591,0,0,0,.08-1.14,1.39,1.39,0,0,0-.25-.88l.37-.12a1.78,1.78,0,0,1,.54-.12q.42,0,.42.6a10.229,10.229,0,0,1-.08,1.09v.32Zm1.56-4.81c-.32-.09-.49-.24-.49-.43a.76.76,0,0,1,.36-.59,1.15,1.15,0,0,1,.75-.28,1.24,1.24,0,0,1,.64.18l.16.1a1,1,0,0,0,.49.17c.29,0,.45-.19.49-.57.3.09.46.24.46.44a.82.82,0,0,1-.36.62,1.13,1.13,0,0,1-.74.29,1.76,1.76,0,0,1-.74-.27l-.21-.12a.76.76,0,0,0-.42-.13c-.26,0-.39.16-.39.49Z"/><path class="a" d="M164.36,58.68a8.569,8.569,0,0,1-1.71,2.38,2.8,2.8,0,0,1-1.76,1,1.07,1.07,0,0,1-.92-.51,2.27,2.27,0,0,1-.35-1.32,4.46,4.46,0,0,1,1-2.91A3,3,0,0,1,163,56a4,4,0,0,1,1.77.49c.1-.32.48-.49,1.16-.49h.2a3.47,3.47,0,0,0-.46,1.26l-.1.45a8.919,8.919,0,0,0-.15,1.75c0,.77.18,1.16.55,1.16a2.83,2.83,0,0,0,1.6-1,13.491,13.491,0,0,0,2-2.43l.42.29a11.36,11.36,0,0,1-2.29,2.91,3.62,3.62,0,0,1-2.21,1.17c-.78,0-1.17-.64-1.17-1.91V58.59m.26-1.27a3.81,3.81,0,0,0-1.89-.72,1.69,1.69,0,0,0-1.42,1,4.26,4.26,0,0,0-.59,2.3c0,.71.24,1.06.71,1.06s1.51-1.1,3-3.31l.23-.3"/><path class="a" d="M26.56,63V52.5L15.34,44.27s-1.45-.08-1.93.4a1.12,1.12,0,0,0-.08,1.6c.4.4,3.63,3.91,3.63,3.91v1.28s-4.84-.48-6.78-1.84S2,42.12,2,42.12a5.51,5.51,0,0,0-1.69,0c-.65.16-.17,1.6-.17,1.6L5,51.94,19.46,60.8l.32,2.32Z"/><path class="a" d="M31,63V52.5l11.21-8.23s1.46-.08,1.94.4a1.12,1.12,0,0,1,.08,1.6c-.4.4-3.64,3.91-3.64,3.91v1.28s4.85-.48,6.79-1.84,8.15-7.5,8.15-7.5a5.51,5.51,0,0,1,1.69,0c.65.16.16,1.6.16,1.6l-4.84,8.22L38.14,60.8l-.33,2.32Z"/><path class="a" d="M14.73,16a1.66,1.66,0,1,0-1.183-.476A1.66,1.66,0,0,0,14.73,16Z"/><path class="a" d="M42.84,14.07a1.69,1.69,0,1,0-1.7-1.69,1.71,1.71,0,0,0,1.7,1.69Z"/><path class="a" d="M55.85,37.43l-.45-.93-2.29-4.68L53,31.51l-.18-.05h0v-.05l.2-.51.19-.49L52.82,30l-1.56-1.47L47.79,25.1l-.15-.1-.2-.05-1.68-.48L44.64,24l-.44-.2V21.45h.35L45,18.08l.85,1.44s.28.39.6.19a.88.88,0,0,0,.36-.59l-2.07-4.49H40.62l-2-1.16s-2.16-6-2.5-6.74-.85-.79-.85-.79H34.12V5.29a1.76,1.76,0,1,0-1.1,0v.54a4,4,0,0,0-.91,0,1.41,1.41,0,0,0-1.23.84L29.64,11s-1.42-4.16-1.88-5.34A2,2,0,0,0,26,4.48H24.89V3.65a1.91,1.91,0,1,0-1.16,0v.68h-.29a4.13,4.13,0,0,0-2.61.87L19.33,15l-2.5,1.77H12.54l-1.79,4.69h.91l-.79,2.59H13.4v1.6a.86.86,0,0,0-.54-.17c-.28,0-.68.13-1,.76l-.23.45.32.4.13.16-.67-.06-.58-.13-.25-.28.07-.23.16-.52.24-.76-.77-.23-.83-.24a8.136,8.136,0,0,1,.1-.91l.08-.48-.41-.29L7.63,22l-.48-.33-.47.35-.35.27-1.24-.94-.39-.29-.44.2-.68.32-.43.2v.72L3,22.59l-.34.23v5.07l.69.09,1.11.16.07.08-.78.38-.45.21v1.58l.14.2.3.43v1.16l-1.29.88L.8,34.19l1.93.29v.33l.15,1.82.08.91.9-.2.35-.08.53-.12.09-.52.34-2.07.06-.13.49-.08h.63l.17.17.3.29.41-.07.88-.16.36-.07.19-.3.06-.11.59.14.07.19.14.47.49.08,3.85.62.2.28L14.69,37l.22,1.76.06.47.46.17,3.37,1.23.9.33.09-.5.1.2.76,1.4.07,1.6v.67l.68.08,1,.11h.16l2.25-.19H25l.13-.07,1.8-.83.35-.16.09-.37.07-.28,2.35-.18.57-.06.14-.55.23-1,.12-.46-.36-.32-2.3-2-.65-1.23V35.77l-.43-.2-.63-.3-.12-.19a2.37,2.37,0,0,0-.07-.45v-.08h.1l1-.14,1.28-.25h.14l.13-.08,1.68-1h.07l.05-.05,1.08-1,.09-.08.06-.09.12-.2.53-.89-.46-.13v-.29l.07-.6h0l.63-.26h.11l.09-.08.45-.35.48-.4,1.42-.1c.29.05,1.63.32,2.88.59a11.64,11.64,0,0,0,1.79,1.14c.23.14,1,.71,1.71,1.24.39,1.51.6,1.83,1,2l.66.38-.29.28,1,.46-.09.27-.22-.09-.59-.25-.37.52-.28.4-.32.44.31.45L46.53,42l.1.74v.34l.29.2L48,44l1,.71.23-1.21.39-2,.53-.5.16-.15.45.63.66-.51,2-1.55L54,39l-.24-.55-.23-.56,1.33-.27ZM15.33,27.17l-.49-.44h0l-.13-.1V24h.66Zm6.81.7L20,28.51l-3.33-.25-.26-.17V24.15h2L17.2,20V17.72l2.41-1.55,1.31-.39.71-3.38.51,2.31Zm2.64-1.36-.59.32L23.9,27V17.7h.88Zm17.72-5h.77V23.4l-.53-.24-.12-.05H42.5ZM37.11,14.6l1.67.08,1.53.9,1.06,5.73V23l-1.93-.13-.4-.14-.14-.25-.08-.14-.13-.11L38,21.74l-.21-.17H37l-.53-8.46Zm-7.33,9.25V24h0l-.38-.1-.31.24-.84.66-1.13.47h0l-.61.32V14.46l.74-4.27,1.56,3.68h1l.11-.31h.94l-.6,8.66h1.2l-.08,1-.31.17-.7.25Z"/><path class="a" d="M39.83,32.03l-2.18-.1.66,2.93,1.24-.25.06-.58.42-.11Z"/><path class="a" d="M14.95,41.34l-.12-.35.54-.41-1.18-1.33-1.62,1.26,1.24,1.77,1.93.16V41.35Z"/><path class="b" d="M32.26,27.15h0l-.52-.32-.14-.09-.12.12-.24.27-.5-.13.08-.33.11-.45-.41.24-.4.24h0l-.56.48-.34-.1.17-.3L30.24,25l.11-.22-.24-.06-.48-.12h-.1l-.07.06-.91.7-1.21.5-2.87,1.52-1.67.95-2.74.81-3.6-.27-.79-.52-.42-.42-.81-.72c-1.39-1.09-1.51-1.09-1.58-1.09a1.1,1.1,0,0,0-.46.43l-.05.11.08.1.89,1.09-.11.06H12.3l-1-.08-.81-.18L9.93,27v-.44H10l.05-.14.15-.52.06-.18-.19-.06c-.3-.09-1-.28-1.27-.35A9.79,9.79,0,0,1,9,23.82V23.7l-.1-.07L7.28,22.52l-.12-.09-.11.09-.72.55L4.72,21.85l-.1-.07h-.1l-.68.32-.11.05v.65l-.32.23-.09.06v4.24h.17l1.34.19.52.59v.36L4,29.13l-.12.05v1.05l.4.59V32.5l-1.55,1-.42.28.5.08.37.05.1.77.16,1.85v.23l.22-.05.36-.08h.14V36.5l.35-2.15.23-.48.86-.14h.93l.34.34.07.07h.1L8.05,34h.08v-.08l.29-.47,1.35.3.17.53v.11h.12l4.09.66.4.53h0l.66,1.27.24,1.87v.12h.11L19,40.09l.22.08v-.23l.16-.92h0v-.8h0l.18.14.11.79h0l.64,1.19.82,1.51.08,1.74v.16h.16l1,.12h0l2.25-.19h.06l1.81-.84h.08v-.09l.16-.69,2.79-.23h.14v-.14l.24-1v-.12l-.09-.07-2.38-2.08L26.93,37v-.82l-.11-.06L26,35.74l-.27-.43a5.417,5.417,0,0,0-.11-.76,3.18,3.18,0,0,1,.23-.45l.37-.17,1-.14,1.26-.24h0l1.69-1h0l1.08-1h0l.11-.2.14-.22-.25-.07-.47-.13v-.07l.19-.18h0l.4-.28.07-.05v-.09l.11-.89.32-.19h0l.68-.27h0l.44-.36.16-.13-.13-.16Zm.18,1.31-.65.27h0l-.4.24-.08.05v.1l-.11.9-.32.23h0l-.28.28-.1.09.06.12.12.28v.08h.09l.29.09-1,.92-1.64,1-1.2.23-1.08.16h-.05l-.44.2h-.06v.05a2.09,2.09,0,0,0-.31.69c0,.13.09.7.12.87h0l.32.52h.05l.74.35v.68h0l.8,1.5h0l2.32,2-.18.74-2.78.22h-.15v.14l-.18.74-1.69.78-2.18.19-.81-.1-.08-1.61v-.05h0l-.84-1.55-.63-1.15-.11-.5v-.13l-.6-.48h0l-.6-.28-.35-.16.07.37v.32h.06l.52.41L19,39l-.12.67-3-1.1-.22-1.79v-.06L15,35.37h0l-.45-.6v-.06h-.08L10.33,34l-.16-.52v-.11h-.11L8.42,33H8.27l-.07.12-.31.52-.69.13-.33-.33-.06-.06H5.72c-.12,0-.82.13-1,.17h-.1v.1l-.28.59v.05l-.34,2H4l-.14-1.64-.12-.92v-.15H3.59l1.23-.83.08-.06V30.64l-.41-.58v-.65l1.21-.58.1-.05v-.1l.08-.56v-.09L5.67,28,5,27.27v-.05H4.93L3.68,27V23.34L4,23.12l.08-.05v-.58l.46-.22,1.66,1.2.12.1.13-.1.72-.54,1.39,1c-.21,1.49-.1,1.63,0,1.69a.23.23,0,0,0,.17.08A9.73,9.73,0,0,1,9.8,26l-.05.18H9.48v.99l.05.06.68.75v.05h.06l.89.2h0l1,.08h1l.36-.2.21-.11-.15-.19-1-1.16v-.07a12.4,12.4,0,0,1,1.31,1l.79.71.44.42h0l.84.56h.06l3.68.28h.07l2.81-.84h0l1.69-.94,2.84-1.51,1.22-.51h0l.85-.65h.14L29,26.6l-.28.51-.11.22.23.07.68.19h.11l.08-.07.61-.53v.25l.19.05.76.19h.12l.08-.08.22-.24.34.21.73.82Z"/><path class="b" d="M53.07,37.38c.12,0,.94-.21,1.65-.34L55,37l-.11-.23L52.6,32.08v-.07h-.08l-.53-.16.33-.62h0l.2-.51v-.13l-.1-.09L50.85,29l-3.49-3.45h0L45.59,25l-1.15-.4-1.95-.86h-.06l-.76-.08-2.35-.15-.7-.24-.24-.45h0l-.68-.51H36.16l-2.64.95-1.35.35h0l-.86.47-.76.27-.13.05v.41l.1.06.7.4.22.5h0l2.13,2.14.06.07h.09l1.71-.12c.16,0,2,.39,3.09.62a11.77,11.77,0,0,0,1.79,1.16c.15.06,1.12.76,2,1.43.42,1.67.58,1.71.7,1.74a7.788,7.788,0,0,1,.94.54l.31.18V32.4l.2-.43h1.22l.42.55v.07h.41c-.19.45,0,.56,0,.6s.46.44.84.83h0l-1.05-.71-.5-.43-.23-.18-.1.27v.12l-.63.07h-.07l-.29.27-.21.21.28.11.44.19v.11l-.07.21s-.23.69-.3.92l-.21.12-.67-.29-.15-.06-.09.13-.28.4-.08.11.07.11,4,5.92.11.86v.09h.07l1.09.75.25.18.06-.3.43-2.24.67-.63.09-.08v-.12l-.24-.85v-.62h.15L51,40.21l.12.17.16-.13,2-1.54.12-.1-.07-.14-.36-.87a1.27,1.27,0,0,1,.1-.22Zm-.66.35v.14l.34.82L51,40l-1-1.45-.05-.08h-.81v.24l.07.87h0l.21.76-.64.59V41l-.39,2-.75-.52-.11-.83h0l-3.9-5.84.11-.16.62.26h.17l.36-.2h.07v-.07l.33-1,.07-.25h0v-.45h-.13l-.28-.13h0l.69-.07h.13v-.08l.3.25,1.18.81.11.08.11-.08.36-.24.2-.13L47.89,34c-.25-.26-.81-.83-1-1a1.7,1.7,0,0,1,.17-.39l.13-.25h-.28l-.53-.07-.42-.56-.07-.08H44.21l-.06.11-.28.6h0v.44a6.28,6.28,0,0,0-.69-.37,9.57,9.57,0,0,1-.47-1.54v-.07h-.06a14,14,0,0,0-2.21-1.55,18.711,18.711,0,0,1-1.69-1.12h0c-.9-.19-3-.64-3.21-.64s-1.28.09-1.64.12l-2-2.05L31.53,25v-.07h-.06l-.56-.32.53-.19h0l.85-.46,1.35-.35,2.64-1h1.17L38,23l.26.48v.07h.08l.8.28h.05l2.37.16.72.08,1.93.85,1.19.41,1.63.46,3.46,3.42L52,30.63l-.15.38-.43.82-.12.21.23.07.68.21,2.13,4.38c-.46.09-1.29.25-1.46.32S52.47,37.55,52.41,37.73Z"/><path class="b" d="M39.67,32.29V32.2H37.92v.12l.52,2.22v.1h.1l.71-.15h.07v-.06l.07-.52.3-.06h.09v-.08Zm-.34,1.35h-.08v.07l-.07.52-.54.12-.48-2h1.32l.13,1.19Z"/><path class="b" d="M15.55,41.52h-.76l-.26-.57.44-.28.1-.07L15,40.49l-.78-.89-.07-.07-.07.06-1.16.88-.07.06.05.08,1,1.44H14l1.47.11h.11v-.7Zm-2.44-1,1-.77.65.73-.42.28h-.07v.07l.32.7v.06h.69V42l-1.31-.11Z"/></g></svg>