<?xml version="1.0" encoding="utf-8"?>
<!-- Generator: Adobe Illustrator 25.2.3, SVG Export Plug-In . SVG Version: 6.00 Build 0)  -->
<svg version="1.1" id="Layer_1" xmlns="http://www.w3.org/2000/svg" xmlns:xlink="http://www.w3.org/1999/xlink" x="0px" y="0px"
	 viewBox="0 0 300.9 118.7" style="enable-background:new 0 0 300.9 118.7;" xml:space="preserve">
<style type="text/css">
	.st0{fill:#FFFFFF;}
	.st1{fill:#0B9548;}
</style>
<path class="st0" d="M118.7,59.3c0,32.8-26.6,59.3-59.3,59.3C26.6,118.7,0,92.1,0,59.3C0,26.5,26.6,0,59.3,0S118.7,26.5,118.7,59.3z
	"/>
<g>
	<path class="st1" d="M88.7,20.2c7.1,1.9,13.7,5,19.7,9.3C98.6,13.4,81.5,3.1,62.7,2C72.8,5.7,81.7,11.9,88.7,20.2z"/>
	<path class="st1" d="M3.8,45.1C2.6,49.7,2,54.5,2,59.4c0,9.8,2.5,19.4,7.2,27.9c-0.2-1.9-0.3-3.9-0.3-5.8c0-3.6,0.3-7.3,0.9-10.9
		C6.2,62.5,4.2,53.9,3.8,45.1z"/>
	<path class="st1" d="M35.7,100.1c-10-6.3-18.3-15.2-23.9-25.6c-0.3,2.3-0.4,4.6-0.4,6.9c0,3.7,0.4,7.4,1.1,11
		c9.8,13.9,25.1,22.7,42.1,24.1c5.6-1.2,10.9-3.2,15.9-6C58.1,110.3,46.1,106.7,35.7,100.1z"/>
	<path class="st1" d="M111.4,34.9c-5.9-5-12.7-8.8-20-11.3c7.6,10.5,11.7,22.8,11.7,35.8c0,18.8-8.8,36.7-23.7,48.2
		c5.9-0.7,11.6-2.1,17.1-4.3c12.9-10.9,20.4-26.9,20.4-43.9C116.8,50.8,115,42.6,111.4,34.9z"/>
	<path class="st1" d="M62.8,116.7c9.5-0.6,18.6-3.4,26.6-8.4c-4.7,1.2-9.4,2-14.2,2.2C71.3,113,67.2,115.1,62.8,116.7z"/>
</g>
<path class="st1" d="M54.4,2.2C33.3,4,15,17.3,6.6,36.9c-0.2,1.9-0.2,3.8-0.2,5.6c0,8.1,1.5,16.1,4.4,23.6
	c3.1-12.5,10-23.8,19.7-32.4c-1-1.4-1.6-3-1.6-4.9c0-4.6,3.9-8.5,8.5-8.5c3,0,5.6,1.6,7.1,4C53,20.2,62.4,18,71.9,18h0.3
	c4.1,0,8.3,0.4,12.4,1.2C76.4,10.6,66.1,4.7,54.4,2.2z"/>
<path class="st1" d="M87.5,22.5c-5-1.3-10.2-2-15.3-2h-0.2c-9.5,0-18.5,2.3-26.5,6.2c0.2,0.7,0.3,1.4,0.3,2.2c0,4.6-3.9,8.5-8.5,8.5
	c-1.9,0-3.7-0.7-5.1-1.8c-10,8.7-17.1,20.7-19.7,34.6c10.8,23,34.1,37.9,59.4,37.9c0.9,0,1.9,0,2.8-0.1C91,97,100.6,78.9,100.6,59.4
	C100.7,46,96,32.8,87.5,22.5z M44.4,87.5c0,0-1.7,0.6-7.5,0.6c-5.3,0-6.6-0.6-6.6-0.6V48.7c0.5-4.2,4.5-7.4,9.4-7.5h4.7
	C44.4,41.2,44.4,87.5,44.4,87.5z M83.2,86c-3.4,2.8-8.4,4.1-14.8,4.1c-6.3,0-12.2-1.6-17.7-4.8c0.1-1.4,0.5-3,1.2-4.7s1.6-3.1,2.6-4
	c5.1,2.8,9.6,4.2,13.5,4.2c2.1,0,3.9-0.4,5.2-1.3c1.3-0.8,2-2,2-3.4c0-2.3-1.7-4.1-5.2-5.4l-5.4-2c-8.2-3-12.2-7.8-12.2-14.3
	c0-2.3,0.4-4.4,1.3-6.3c0.9-1.8,2.1-3.4,3.7-4.8c1.6-1.3,3.5-2.3,5.7-3.1c2.2-0.7,4.7-1.1,7.4-1.1c1.2,0,2.6,0.1,4.1,0.3
	c1.5,0.2,3.1,0.5,4.6,0.8c1.6,0.4,3,0.8,4.5,1.2c1.4,0.5,2.7,0.9,3.7,1.5c0,1.6-0.3,3.3-1,5.1c-0.7,1.8-1.5,3-2.6,3.9
	c-5.1-2.3-9.6-3.4-13.3-3.4c-1.7,0-3,0.4-4,1.2c-1,0.8-1.5,1.9-1.5,3.2c0,2,1.6,3.6,4.9,4.8l5.9,2.1c4.3,1.5,7.5,3.5,9.5,6.1
	c2.1,2.6,3.1,5.6,3.1,9C88.3,79.6,86.6,83.3,83.2,86z"/>
<g>
	<rect x="130.8" y="34.8" width="4.2" height="22.3"/>
	<path d="M140.1,41h3.4v1.9c1.8-1.4,3.1-2.2,4.9-2.2c2.9,0,4.4,1.8,4.4,5.2V57h-3.8V46.6c0-2-0.4-2.8-1.8-2.8
		c-1.1,0-2.2,0.6-3.5,1.8V57h-3.7L140.1,41L140.1,41z"/>
	<path d="M162.8,54.1c0.4,0,0.9,0,1.5-0.1v3.1c-0.6,0.1-1.6,0.3-3.1,0.3c-2.6,0-3.7-1.2-3.7-3.8v-9.5h-2.1V41h2.1v-5.2h3.7V41h3.1
		v3.1h-3.1v8.1C161.3,53.6,161.5,54.1,162.8,54.1"/>
	<path d="M175.6,46.9c0-2.1-1.1-3.4-2.9-3.4c-1.7,0-2.7,1.2-2.9,3.4H175.6z M172.8,57.3c-4.2,0-6.7-3-6.7-8.3c0-5.3,2.5-8.4,6.6-8.4
		c4.1,0,6.6,2.9,6.6,8.2c0,0.3,0,0.5,0,0.8h-9.5c0,3,1.1,4.6,3.4,4.6c1.4,0,2.4-0.7,3.2-2.1l2.8,1.7
		C177.9,56.2,175.7,57.3,172.8,57.3"/>
	<path d="M182.4,41h3.6v2.7c1-2,2.4-2.9,3.9-2.9c0.1,0,0.3,0,0.5,0v4h-0.2c-1.6,0-3.1,0.9-4,2.5V57h-3.8L182.4,41L182.4,41z"/>
	<path d="M193.1,41h3.4v1.9c1.8-1.4,3.1-2.2,4.9-2.2c2.9,0,4.4,1.8,4.4,5.2V57h-3.8V46.6c0-2-0.4-2.8-1.8-2.8
		c-1.1,0-2.2,0.6-3.5,1.8V57h-3.7V41z"/>
	<path d="M212.7,52.6c0,1.1,0.6,1.7,1.7,1.7c1.2,0,2.3-0.5,3.5-1.7v-3.4C214.4,49.7,212.7,50.7,212.7,52.6 M217.9,55.6
		c-1.4,1.1-3,1.6-4.7,1.6c-2.6,0-4.2-1.6-4.2-4.3c0-3.6,2.9-5.5,9-6.2v-1.3c0-1.2-0.8-1.8-2.2-1.8s-2.6,0.6-3.5,1.8l-2.5-1.6
		c1.3-2.1,3.4-3.1,6.1-3.1c3.7,0,5.8,1.8,5.8,4.8v9.4c0,0.5,0.1,1.3,0.2,2.2h-3.6L217.9,55.6z"/>
	<path d="M237.7,53.3c-1.1,2.7-3.2,4.1-6.2,4.1c-4.5,0-6.8-2.8-6.8-8.3c0-5.2,2.6-8.3,6.8-8.3c3,0,5.1,1.5,6.1,4.2l-3.1,1.4
		c-0.5-1.6-1.4-2.4-2.7-2.4c-2.3,0-3.3,1.7-3.3,5.4c0,3.3,1,4.9,3.1,4.9c1.5,0,2.5-0.8,3.3-2.4L237.7,53.3z"/>
	<path d="M240.8,41h3.8V57h-3.8V41z M240.8,34.8h3.8v3.6h-3.8V34.8z"/>
	<path d="M254.5,54.1c2,0,3-1.7,3-5.1c0-3.4-1-5.1-3-5.1c-2,0-3,1.7-3,5.1C251.5,52.4,252.5,54.1,254.5,54.1 M254.5,40.7
		c4.2,0,6.8,3.1,6.8,8.3s-2.6,8.3-6.8,8.3c-4.2,0-6.8-3.1-6.8-8.3C247.7,43.7,250.3,40.7,254.5,40.7"/>
	<path d="M264.4,41h3.5v1.9c1.8-1.4,3.1-2.2,4.9-2.2c2.9,0,4.4,1.8,4.4,5.2V57h-3.7V46.6c0-2-0.5-2.8-1.8-2.8
		c-1.1,0-2.2,0.6-3.5,1.8V57h-3.7L264.4,41L264.4,41z"/>
	<path d="M284,52.6c0,1.1,0.6,1.7,1.7,1.7c1.2,0,2.3-0.5,3.5-1.7v-3.4C285.7,49.7,284,50.7,284,52.6 M289.3,55.6
		c-1.5,1.1-3,1.6-4.7,1.6c-2.6,0-4.2-1.6-4.2-4.3c0-3.6,2.9-5.5,9-6.2v-1.3c0-1.2-0.8-1.8-2.2-1.8s-2.6,0.6-3.5,1.8l-2.5-1.6
		c1.3-2.1,3.4-3.1,6.1-3.1c3.7,0,5.8,1.8,5.8,4.8v9.4c0,0.5,0.1,1.3,0.2,2.2h-3.6L289.3,55.6z"/>
	<rect x="297.1" y="34.8" width="3.8" height="22.3"/>
	<path d="M138.8,75.6c-1-0.9-1.8-1.3-2.8-1.3c-2,0-3.3,1.8-3.3,5.2c0,3.3,1.3,5.2,3.4,5.2c1,0,1.8-0.4,2.8-1.4V75.6z M135.1,87.8
		c-3.6,0-6.2-3.3-6.2-8.3c0-5.2,2.6-8.3,6.1-8.3c1.6,0,2.8,0.6,3.8,1.8v-7.8h3.7v18.5c0,0.8,0.1,2,0.2,3.8h-2.9l-0.4-1.7
		C138.2,87.1,136.8,87.8,135.1,87.8"/>
	<path d="M155.1,77.3c0-2.1-1.1-3.4-2.9-3.4c-1.7,0-2.8,1.2-2.9,3.4H155.1z M152.3,87.8c-4.2,0-6.7-3-6.7-8.3c0-5.3,2.5-8.4,6.6-8.4
		c4.1,0,6.6,2.9,6.6,8.2c0,0.3,0,0.5,0,0.8h-9.5c0,3,1.1,4.6,3.4,4.6c1.4,0,2.4-0.7,3.2-2.1l2.8,1.7
		C157.4,86.6,155.2,87.8,152.3,87.8"/>
	<path d="M174,80.7c1.1,2.4,2.5,3.4,4.5,3.4c2.2,0,3.6-1.1,3.6-2.8c0-1.5-1-2.3-3.3-3.1c-2-0.7-3.8-1.3-5.2-2.3
		c-1.7-1.1-2.6-2.8-2.6-4.9c0-3.5,2.8-6.1,7.2-6.1c3.8,0,6.2,1.7,7.4,4.9l-3.8,1.4c-0.9-2-2.1-2.8-3.9-2.8c-1.8,0-2.9,0.9-2.9,2.4
		c0,2.1,2.1,2.4,5.6,3.9c3.7,1.6,5.5,3,5.5,6.5c0,4-2.8,6.6-7.5,6.6c-4.1,0-6.9-1.8-8.3-5.3L174,80.7z"/>
	<path d="M197.8,77.3c0-2.1-1.1-3.4-2.9-3.4c-1.7,0-2.8,1.2-2.9,3.4H197.8z M195,87.8c-4.2,0-6.7-3-6.7-8.3c0-5.3,2.5-8.4,6.6-8.4
		s6.6,2.9,6.6,8.2c0,0.3,0,0.5,0,0.8H192c0,3,1.1,4.6,3.4,4.6c1.4,0,2.4-0.7,3.2-2.1l2.8,1.7C200.1,86.6,197.9,87.8,195,87.8"/>
	<path d="M210.1,79.2c1.5,0,2.6-1,2.6-2.6s-1.1-2.6-2.7-2.6c-1.4,0-2.5,1-2.5,2.7C207.5,78.2,208.5,79.2,210.1,79.2 M206.8,88.8
		c0,1.1,1.1,1.8,3.1,1.8c2.6,0,4.1-0.8,4.1-2c0-0.9-0.7-1.2-2.1-1.3l-3.5-0.2C207.3,87.6,206.8,88.1,206.8,88.8 M203.9,83.9
		c0-1.1,0.8-2.2,2.4-3c-1.4-0.9-2.2-2.3-2.2-4.2c0-3.3,2.4-5.6,6-5.6c1.5,0,2.8,0.4,4,1.3c0.8-1,1.7-1.5,2.9-1.5c0.2,0,0.4,0,0.6,0
		v2.8c-0.3,0-0.5-0.1-0.7-0.1c-0.5,0-0.9,0.1-1.4,0.4c0.5,0.7,0.7,1.7,0.7,2.9c0,3.1-2.2,5.1-5.9,5.1c-0.7,0-1.2-0.1-1.7-0.2
		c-0.7,0.3-1,0.6-1,1.1c0,1.1,1.5,1,4.2,1.2c4.1,0.3,5.8,1.1,5.8,4.2c0,3.2-2.6,5-7.4,5c-4.4,0-6.7-1.4-6.7-4c0-1.5,0.9-2.3,2.8-2.9
		C204.5,85.6,203.9,85,203.9,83.9"/>
	<path d="M224.4,87.8c-2.9,0-4.4-1.7-4.4-5.2V71.4h3.7v10.4c0,2,0.5,2.9,1.8,2.9c1.1,0,2.2-0.6,3.5-1.8V71.4h3.7v16.1h-3.4v-1.9
		C227.5,87,226.1,87.8,224.4,87.8"/>
	<path d="M237,71.4h3.6V74c1-2,2.4-2.9,3.9-2.9c0.1,0,0.3,0,0.5,0v4h-0.2c-1.6,0-3.1,0.9-4,2.5v9.8H237L237,71.4L237,71.4z"/>
	<path d="M253.3,84.5c2,0,3-1.7,3-5.1c0-3.4-1-5.1-3-5.1c-2,0-3,1.7-3,5.1C250.3,82.8,251.3,84.5,253.3,84.5 M253.3,71.1
		c4.2,0,6.8,3.1,6.8,8.3c0,5.3-2.6,8.3-6.8,8.3s-6.8-3.1-6.8-8.3C246.5,74.1,249.1,71.1,253.3,71.1"/>
	<path d="M264.5,82.5c1.2,1.5,2.3,2.3,3.6,2.3c1.4,0,2.2-0.7,2.2-1.8c0-1.3-1.1-1.6-2.9-2.3c-3.2-1.3-5-2.3-5-5s2.1-4.7,5.4-4.7
		c2.2,0,3.9,0.8,5.4,2.5l-2.4,2.1c-1-1.1-2-1.6-3.1-1.6c-1.3,0-2,0.6-2,1.6c0,1.1,1.3,1.4,3.5,2.2c2.9,1.1,4.4,2.2,4.4,5
		c0,3-2.2,4.9-5.5,4.9c-2.6,0-4.5-1-6.2-3.2L264.5,82.5z"/>
</g>
</svg>
