<svg xmlns="http://www.w3.org/2000/svg" width="98" height="32" viewBox="0 0 98 32" fill="none"><g clip-path="url(#clip0_929_943)"><path d="M84.7945 25.9941C84.8278 25.9315 84.8011 25.8939 84.7579 25.8845C82.8775 26.5891 78.7608 27.2937 76.1982 27.6538C73.9818 27.9669 72.0815 28.017 71.0198 28.0859L70.5373 28.1235C70.4807 28.1329 70.4474 28.1642 70.4408 28.208C70.4275 28.2456 70.4574 28.2738 70.4907 28.2957C70.6837 28.4993 71.3094 29.0473 72.5574 29.2195C73.9884 29.4042 76.1184 29.0535 78.7708 28.3333C80.9972 27.7352 83.5465 26.6987 84.7912 25.9941H84.7945Z" fill="white"></path><path d="M84.9875 27.0432C83.7961 27.8104 82.1787 28.5494 80.2418 29.182C78.2783 29.8239 76.165 30.3688 73.8653 30.7258C73.822 30.7383 73.7854 30.7665 73.7755 30.8072C73.7755 30.8354 73.7854 30.8667 73.8054 30.8823C74.1848 31.1642 74.674 31.3301 75.2731 31.3928C76.0152 31.471 76.9071 31.3771 77.9321 31.1235C78.844 30.8949 79.716 30.516 80.7077 30.0682C81.6495 29.6392 82.5448 29.1413 83.3069 28.6277C84.0856 28.1048 84.6747 27.5912 85.0408 27.1434C85.0441 27.0808 85.0241 27.0526 84.9875 27.0463V27.0432Z" fill="white"></path><path d="M75.323 7.22753C75.7989 7.70977 76.4179 8.05422 77.17 8.27656L77.2266 8.29534C77.4362 8.34858 89.9729 11.4549 93.2942 12.2973C94.7452 12.6637 95.8967 12.958 96.4359 13.1052C96.4924 13.1083 96.5224 13.0864 96.529 13.0551C96.529 13.0301 96.5124 13.005 96.4825 12.9925C94.3858 12.2002 81.4665 7.53754 76.5976 5.78394L74.5475 5.03867C74.4776 5.0324 74.4444 5.03553 74.4177 5.06058C74.3978 5.0825 74.3944 5.11695 74.3944 5.13574C74.4111 5.29857 74.5176 6.17537 74.9336 6.7766C75.0534 6.95196 75.1832 7.09914 75.323 7.23379V7.22753Z" fill="white"></path><path d="M75.8654 2.58667C76.115 2.8779 76.3547 3.06578 76.8139 3.32569C76.967 3.41337 77.1201 3.50731 77.2965 3.5856L78.4513 4.13673C79.1069 4.44987 88.7914 8.69295 90.2058 9.35368C91.8798 10.1271 93.5505 10.8693 94.2827 11.2169C94.3559 11.2294 94.3925 11.2106 94.3725 11.1292C92.5687 10.0708 85.6398 5.96861 80.6944 3.09396L77.1467 1.07733L76.4978 0.701558L75.293 0.0157765C75.2265 -0.00614347 75.1965 -0.00301205 75.1732 0.0157765C75.1366 0.0283022 75.1233 0.0596164 75.1233 0.0815363C75.11 0.238107 75.0967 1.09299 75.3762 1.74745C75.506 2.03554 75.6658 2.33929 75.8654 2.58667V2.58667Z" fill="white"></path><path d="M84.5882 29.0847C84.5715 29.0847 84.5449 29.0847 84.5283 29.0972C82.9242 30.5815 80.5579 31.4176 79.7725 31.6462C79.7293 31.6525 79.696 31.6838 79.6893 31.7245C79.6893 31.7621 79.716 31.8028 79.7526 31.8184C79.8757 31.8748 80.8275 32.3571 82.6313 31.499C83.6596 31.0105 84.1788 30.2246 84.6414 29.1787C84.6581 29.116 84.6181 29.091 84.5848 29.091L84.5882 29.0847Z" fill="white"></path><path d="M96.123 16.5935C95.3176 16.8095 92.2425 17.5548 89.5302 18.203C87.1806 18.7729 84.5482 19.4493 84.5482 19.4493C84.2719 19.5151 84.3718 19.6216 84.4017 19.6591C84.4716 19.7625 84.6247 19.9879 84.7978 20.2635C85.2204 20.9274 85.7928 20.8428 86.3053 20.6737C86.4019 20.6424 95.7636 16.9692 96.1862 16.7031C96.2594 16.6655 96.2128 16.6342 96.2095 16.6123C96.1995 16.5872 96.1496 16.5935 96.1263 16.5935H96.123Z" fill="white"></path><path d="M92.0096 22.7029L91.9497 22.7248C90.7117 23.6924 88.8281 25.2425 86.8745 26.805C86.6881 26.946 86.6183 27.2059 86.5417 27.519C86.4186 28.042 86.1324 28.7246 86.1324 28.7246C86.0758 28.8812 86.1557 28.9438 86.3121 28.7935C87.8163 27.2685 91.151 23.7989 92.0529 22.8093C92.0729 22.7436 92.0462 22.7091 92.0063 22.706L92.0096 22.7029Z" fill="white"></path><path d="M97.9401 14.2452C96.2761 13.9571 76.0451 10.5814 76.0318 10.5814C75.9952 10.5783 75.9519 10.5971 75.922 10.6252C75.9087 10.6597 75.9153 10.7004 75.9253 10.738C76.2548 11.7212 77.0435 12.7076 78.408 13.1053C78.5644 13.1523 78.6975 13.1648 78.8506 13.1805C78.8506 13.1805 96.0065 14.2389 97.9168 14.3642C97.9634 14.3642 97.9967 14.3454 97.9967 14.3141C97.9967 14.2827 97.9734 14.2546 97.9368 14.2483L97.9401 14.2452Z" fill="white"></path><path d="M97.0981 15.3315C96.4958 15.3472 95.2577 15.3535 93.7135 15.3597C91.9331 15.366 89.7299 15.3754 87.6798 15.3785C84.9209 15.3879 80.5413 15.413 80.5413 15.413C80.5146 15.4161 80.478 15.4286 80.4581 15.4599C80.4381 15.4912 80.4381 15.5163 80.4581 15.5445C80.5146 15.7198 80.7709 16.1582 81.0471 16.4338C81.5996 16.9724 82.1953 17.2542 82.8176 17.3137C82.8908 17.32 82.9641 17.32 83.0406 17.32C83.1171 17.32 83.187 17.3106 83.2736 17.2981C83.3568 17.2887 96.3959 15.5601 97.1015 15.4537C97.1347 15.4474 97.158 15.4255 97.1647 15.4004C97.1647 15.3691 97.1347 15.3347 97.0981 15.3315V15.3315Z" fill="white"></path><path d="M95.0747 18.3096C94.1762 18.8294 91.8366 20.1759 89.8431 21.3063C88.7249 21.9452 87.3105 22.6873 86.5816 23.1163C86.4951 23.1664 86.4285 23.1633 86.4685 23.3762C86.4685 23.3762 86.5018 23.5798 86.5251 23.824C86.6016 24.8448 87.0442 24.7321 87.6965 24.2593L87.7731 24.1998C90.0261 22.4556 94.2094 19.1425 95.1213 18.4223C95.1446 18.3471 95.1213 18.3221 95.0781 18.3096H95.0747Z" fill="white"></path><path d="M57.3417 7.25854C52.8588 7.26481 48.6422 10.3712 48.4592 16.4242C48.2961 21.9293 51.3413 25.7809 56.4964 25.7809C60.7329 25.7809 62.2205 23.0033 62.2205 23.0033C62.4602 24.8634 63.5318 25.4302 65.6584 25.4302V7.25854H57.3417ZM62.0175 17.9649C62.0175 20.4794 60.4866 22.8749 57.1553 22.8749C54.1801 22.8749 52.0468 20.993 52.1833 16.4618C52.3164 12.1154 54.5428 10.2021 57.4781 10.2021C57.7078 10.2021 57.9241 10.1927 58.1337 10.177L62.0175 10.1802V17.9649V17.9649Z" fill="white"></path><path d="M28.7773 7.25854L28.7906 19.8594C28.7906 21.6975 27.1765 22.6213 25.0433 22.6213C22.7969 22.6213 21.3292 21.7007 21.3292 19.8594L21.3026 10.4307C21.2993 7.74392 19.5121 7.25854 17.938 7.25854V20.6328C17.938 24.0116 21.1661 25.6682 24.9334 25.6682C28.7008 25.6682 32.1685 24.0116 32.1685 20.6328V10.844C32.1685 8.2011 31.1102 7.26168 28.7773 7.26168V7.25854Z" fill="white"></path><path d="M9.94743 15.3971L5.82402 14.3324C4.68917 14.0381 3.65416 13.5746 3.65416 12.272C3.65416 10.9693 4.5261 10.2491 6.35983 10.2491H10.0273C11.648 10.2491 13.5816 9.74176 13.5849 7.25854L6.68265 7.26481C2.43278 7.26794 0 9.28771 0 12.1843C0 14.8773 1.8171 16.3929 5.06191 17.2039L8.64951 18.0995C10.1338 18.4753 10.663 19.349 10.663 20.2446C10.663 21.6099 9.74775 22.4334 7.52131 22.4459L0.632322 22.496V25.4302H7.63779C11.8877 25.4302 14.3238 23.282 14.3238 20.4575C14.3238 17.6329 13.1323 16.2113 9.95076 15.3971H9.94743Z" fill="white"></path><path d="M43.7667 7.25854C39.5901 7.25854 36.7113 9.52883 36.7113 14.2072V25.4271H40.076V14.1007C40.076 11.6926 41.4571 10.2491 44.0563 10.2491H45.0547C48.0066 10.2491 48.4858 8.81173 48.4858 7.25854H43.7634H43.7667Z" fill="white"></path></g><defs><clipPath id="clip0_929_943"><rect width="98" height="32" fill="white"></rect></clipPath></defs></svg>